{"title":"Flight 2012 CAM x264 AAC-UNiQUE ","uid":7819325,"size":2419095136,"categoryP":"video","categoryS":"movies","magnet":"?xt=urn:btih:9fce0f7a3c9f884b036cd3efeb2cac358690d8b9&amp;dn=Flight+2012+CAM+x264+AAC-UNiQUE+&amp;tr=udp%3A%2F%2Ftracker.openbittorrent.com%3A80&amp;tr=udp%3A%2F%2Fopen.demonii.com%3A1337&amp;tr=udp%3A%2F%2Ftracker.coppersurfer.tk%3A6969&amp;tr=udp%3A%2F%2Fexodus.desync.com%3A6969","seeders":7,"leechers":1,"uploader":"Acesn8s","files":-1,"time":1352756199,"description":"General\nComplete name : Flight 2012 CAM x264 AAC-UNiQUE.mp4\nFormat : MPEG-4\nFormat profile : Base Media\nCodec ID : isom\nFile size : 2.22 GiB\nDuration : 2h 3mn\nOverall bit rate mode : Variable\nOverall bit rate : 2 570 Kbps\nEncoded date : UTC 2012-11-12 19:14:07\n\nVideo\nID : 1\nFormat : AVC\nFormat/Info : Advanced Video Codec\nFormat profile : &lt;a class=&quot;__cf_email__&quot; href=&quot;/cdn-cgi/l/email-protection&quot; data-cfemail=&quot;450d2c222d0509716b74&quot;&gt;[email&amp;#160;protected]&lt;/a&gt;&lt;script cf-hash='f9e31' type=&quot;text/javascript&quot;&gt;\n/* &lt;![CDATA[ */!function(){try{var t=&quot;currentScript&quot;in document?document.currentScript:function(){for(var t=document.getElementsByTagName(&quot;script&quot;),e=t.length;e--;)if(t[e].getAttribute(&quot;cf-hash&quot;))return t[e]}();if(t&amp;&amp;t.previousSibling){var e,r,n,i,c=t.previousSibling,a=c.getAttribute(&quot;data-cfemail&quot;);if(a){for(e=&quot;&quot;,r=parseInt(a.substr(0,2),16),n=2;a.length-n;n+=2)i=parseInt(a.substr(n,2),16)^r,e+=String.fromCharCode(i);e=document.createTextNode(e),c.parentNode.replaceChild(e,c)}}}catch(u){}}();/* ]]&gt; */&lt;/script&gt;\nFormat settings, CABAC : Yes\nFormat settings, ReFrames : 3 frames\nCodec ID : avc1\nCodec ID/Info : Advanced Video Coding\nDuration : 2h 3mn\nBit rate mode : Variable\nBit rate : 2 471 Kbps\nMaximum bit rate : 40.0 Mbps\nWidth : 640 pixels\nHeight : 258 pixels\nDisplay aspect ratio : 2.481\nFrame rate mode : Constant\nFrame rate : 29.970 fps\nColor space : YUV\nChroma subsampling : 4:2:0\nBit depth : 8 bits\nScan type : Progressive\nBits/(Pixel*Frame) : 0.499\nStream size : 2.14 GiB (96%)\nWriting library : x264 core 129 r2230 1cffe9f\n\nAudio\nID : 2\nFormat : AAC\nFormat/Info : Advanced Audio Codec\nFormat profile : LC\nCodec ID : 40\nDuration : 2h 3mn\nBit rate mode : Variable\nBit rate : 96.0 Kbps\nMaximum bit rate : 102 Kbps\nChannel(s) : 2 channels\nChannel positions : Front: L R\nSampling rate : 48.0 KHz\nCompression mode : Lossy\nStream size : 83.9 MiB (4%)\nLanguage : English\nEncoded date : UTC 2012-11-12 19:15:05\n\nSources : HP - Thanks!\n\nStoryline\nAn airline pilot saves a flight from crashing, but an investigation into the malfunctions reveals something troubling.\n\nScreens \n &lt;a href=&quot;\nhttp://www.shotpix.com/images/87554679811667824691.png&quot; rel=&quot;nofollow&quot; target=&quot;_NEW&quot;&gt;\nhttp://www.shotpix.com/images/87554679811667824691.png&lt;/a&gt; &lt;a href=&quot;\nhttp://www.shotpix.com/images/76745734749782339519.png&quot; rel=&quot;nofollow&quot; target=&quot;_NEW&quot;&gt;\nhttp://www.shotpix.com/images/76745734749782339519.png&lt;/a&gt; &lt;a href=&quot;\nhttp://www.shotpix.com/images/24795635160800117753.png&quot; rel=&quot;nofollow&quot; target=&quot;_NEW&quot;&gt;\nhttp://www.shotpix.com/images/24795635160800117753.png&lt;/a&gt; &lt;a href=&quot;\nhttp://www.shotpix.com/images/72085237967332340112.png&quot; rel=&quot;nofollow&quot; target=&quot;_NEW&quot;&gt;\nhttp://www.shotpix.com/images/72085237967332340112.png&lt;/a&gt; &lt;a href=&quot;\nhttp://www.shotpix.com/images/17141249021474843849.png&quot; rel=&quot;nofollow&quot; target=&quot;_NEW&quot;&gt;\nhttp://www.shotpix.com/images/17141249021474843849.png&lt;/a&gt;","torrent":{"xt":"urn:btih:9fce0f7a3c9f884b036cd3efeb2cac358690d8b9","amp;dn":"Flight+2012+CAM+x264+AAC-UNiQUE+","amp;tr":["udp%3A%2F%2Ftracker.openbittorrent.com%3A80","udp%3A%2F%2Fopen.demonii.com%3A1337","udp%3A%2F%2Ftracker.coppersurfer.tk%3A6969","udp%3A%2F%2Fexodus.desync.com%3A6969"],"infoHash":"9fce0f7a3c9f884b036cd3efeb2cac358690d8b9","infoHashBuffer":{"type":"Buffer","data":[159,206,15,122,60,159,136,75,3,108,211,239,235,44,172,53,134,144,216,185]},"announce":[],"urlList":[]}}